<svg width="48" height="49" viewBox="0 0 48 49" fill="none" xmlns="http://www.w3.org/2000/svg">
<rect x="2" y="2.5" width="44" height="44" rx="22" fill="#120515"/>
<g clip-path="url(#clip0_1379_27355)">
<path d="M28.1663 20.6654V18.1654C28.1663 17.9444 28.0785 17.7324 27.9223 17.5761C27.766 17.4198 27.554 17.332 27.333 17.332H18.9997C18.5576 17.332 18.1337 17.5076 17.8212 17.8202C17.5086 18.1327 17.333 18.5567 17.333 18.9987C17.333 19.4407 17.5086 19.8646 17.8212 20.1772C18.1337 20.4898 18.5576 20.6654 18.9997 20.6654H28.9997C29.2207 20.6654 29.4327 20.7532 29.5889 20.9094C29.7452 21.0657 29.833 21.2777 29.833 21.4987V23.9987M29.833 27.332V29.832C29.833 30.053 29.7452 30.265 29.5889 30.4213C29.4327 30.5776 29.2207 30.6654 28.9997 30.6654H18.9997C18.5576 30.6654 18.1337 30.4898 17.8212 30.1772C17.5086 29.8646 17.333 29.4407 17.333 28.9987V18.9987" stroke="white" stroke-width="1.5" stroke-linecap="round" stroke-linejoin="round"/>
<path d="M30.667 24V27.3333H27.3337C26.8916 27.3333 26.4677 27.1577 26.1551 26.8452C25.8426 26.5326 25.667 26.1087 25.667 25.6667C25.667 25.2246 25.8426 24.8007 26.1551 24.4882C26.4677 24.1756 26.8916 24 27.3337 24H30.667Z" stroke="white" stroke-width="1.5" stroke-linecap="round" stroke-linejoin="round"/>
</g>
<rect x="2" y="2.5" width="44" height="44" rx="22" stroke="#E3E3E3" stroke-width="4"/>
<defs>
<clipPath id="clip0_1379_27355">
<rect width="20" height="20" fill="white" transform="translate(14 14)"/>
</clipPath>
</defs>
</svg>
