<svg width="112" height="141" viewBox="0 0 112 141" fill="none" xmlns="http://www.w3.org/2000/svg">
<g opacity="0.1">
<path fill-rule="evenodd" clip-rule="evenodd" d="M100.786 52.6035C96.3703 51.3967 94.6682 50.7985 89.4614 50.7483C76.4114 50.6211 67.6426 49.6137 54.8956 46.056C47.7412 44.0593 41.8071 41.9394 36.2532 38.4176C30.9473 35.0535 26.5184 27.4267 32.9126 21.3889C40.7008 14.0351 64.2601 12.0162 76.1966 16.634C84.8069 19.9651 84.4688 26.2461 78.7287 32.4504C75.2112 36.2535 69.9197 40.3403 64.5258 41.548C63.0552 41.8771 62.9159 41.6481 62.2583 42.6586C62.6158 42.9915 62.0419 42.748 63.1022 43.201C63.2712 43.2729 63.9636 43.4542 64.1257 43.4876C64.9847 43.6642 66.0094 43.7818 66.7574 43.896C75.1572 45.1755 98.765 47.7136 104.686 46.177C108.968 45.0659 111.745 35.1404 111.98 29.7353C112.327 21.7311 108.148 17.0703 104.616 13.3331C90.6874 -1.40516 50.4252 -4.04598 29.1635 6.01496C19.8762 10.4098 7.4411 19.0553 10.4993 33.6075C17.0654 64.8543 81.1275 73.7615 90.7903 66.4679C93.06 64.7542 100.235 56.7229 100.786 52.6035Z" fill="white"/>
<path fill-rule="evenodd" clip-rule="evenodd" d="M20.4536 123.899L22.6592 124.948C22.3422 127.138 19.5435 132.303 20.3216 133.832C21.5992 133.686 21.3991 133.561 21.8914 132.041C22.1843 131.137 22.4444 130.386 22.7504 129.526C23.3882 127.734 23.8742 124.382 25.4122 125.944C25.7781 126.315 25.5327 127.149 25.3511 127.705C24.6939 129.712 23.3041 132.08 23.9357 133.5C25.1117 133.227 24.7094 133.52 25.2402 132.393C25.7571 131.295 26.5084 128.193 27.4188 126.523L29.0016 126.988C28.8874 128.554 27.8965 130.712 27.3912 132.19C26.2134 135.635 25.5525 135.944 27.0338 136.529C28.5458 135.08 29.3426 129.629 30.7257 127.576L32.995 128.168C32.8559 129.42 32.1645 130.976 31.7396 132.176L30.7359 135.264C30.7819 137.6 30.053 133.2 30.9358 136.074C30.9559 136.14 31.0058 136.258 31.0614 136.337C32.2185 136.016 31.8534 136.244 32.3683 134.848L34.4605 128.779L37.0339 129.415L35.1234 135.264C35.1234 135.269 34.3302 134.662 35.4241 136.327C36.6693 135.986 36.2102 136.264 36.7454 134.859C38.8317 129.386 37.6669 129.742 40.0486 130.23C39.9482 131.968 37.9652 134.447 39.1163 135.868C41.0181 135.249 40.307 132.79 41.8012 130.904L43.4092 131.204C43.1311 133.54 40.8247 137.109 41.394 138.935C43.0533 138.711 42.9939 137.276 43.5603 135.657C44.03 134.314 44.4284 132.71 45.1575 131.785L47.4154 132.374C46.6213 135.844 44.7678 137.738 46.1643 138.902C47.2401 138.427 47.2385 137.603 47.734 136.146C48.163 134.884 48.5423 134.042 48.8404 132.812L51.2552 133.371C50.8834 135.666 48.6394 139.264 49.4163 140.993C51.434 140.45 51.1701 137.01 52.8765 133.948L55.8488 134.363C56.8849 122.445 58.0782 111.132 61.1218 100.355C62.9028 94.0499 66.4129 85.2829 70.0638 80.1609C70.9696 78.8898 74.0697 75.9773 73.3496 74.2571L49.4941 70.8976C45.3149 70.549 43.4463 74.3251 41.4648 76.3526L34.8677 83.615C28.1237 92.0089 19.4 108.754 20.4536 123.899Z" fill="white"/>
<path fill-rule="evenodd" clip-rule="evenodd" d="M0.344744 96.7753L1.86441 97.8117C1.57347 99.8411 -0.792128 103.271 0.274519 104.806C1.55678 104.602 1.57794 103.575 2.0853 102.094C2.29257 101.489 2.44324 100.99 2.68552 100.339L3.54122 98.7472C6.94945 99.693 2.55887 101.906 3.87696 104.207C6.09923 104.001 4.88864 101.73 6.5618 99.9728L8.00552 100.538C7.69483 102.685 6.75399 104.216 6.39851 105.519C5.99824 106.985 5.94226 106.47 6.5618 107.345C7.63639 107.102 7.11254 107.995 8.29727 104.661C8.63932 103.697 9.00885 102.288 9.58238 101.356L11.8686 102.102C11.5819 103.601 10.0407 105.985 10.9251 107.259C12.3774 106.972 12.2122 105.839 13.3487 102.652L15.6331 103.085C17.2814 97.2653 23.5323 88.2465 26.5646 84.3856C32.9943 76.2007 35.1265 75.4951 41.0516 69.2059C39.353 67.5467 29.9199 64.8307 26.5667 65.3248C19.1132 66.4228 0.649937 86.3964 0.344744 96.7753Z" fill="white"/>
</g>
</svg>
