<svg width="44" height="45" viewBox="0 0 44 45" fill="none" xmlns="http://www.w3.org/2000/svg">
<ellipse cx="22" cy="22.5" rx="22" ry="22.5" fill="#FAA804"/>
<path fill-rule="evenodd" clip-rule="evenodd" d="M31.3593 18.6975C30.4415 18.4445 30.0878 18.3192 29.0056 18.3087C26.2933 18.282 24.4709 18.0709 21.8215 17.3251C20.3346 16.9067 19.1013 16.4623 17.9469 15.7242C16.8442 15.019 15.9237 13.4205 17.2526 12.155C18.8713 10.6136 23.7678 10.1904 26.2487 11.1583C28.0382 11.8565 27.968 13.173 26.775 14.4734C26.0439 15.2706 24.9441 16.1271 23.823 16.3803C23.5174 16.4493 23.4885 16.4013 23.3518 16.6131C23.4261 16.6828 23.3068 16.6318 23.5272 16.7268C23.5623 16.7418 23.7062 16.7798 23.7399 16.7868C23.9184 16.8238 24.1314 16.8485 24.2869 16.8724C26.0327 17.1406 30.9393 17.6726 32.1699 17.3505C33.0598 17.1176 33.6369 15.0373 33.6858 13.9044C33.7581 12.2267 32.8894 11.2498 32.1554 10.4665C29.2604 7.37736 20.8924 6.82384 16.4734 8.9326C14.5432 9.85375 11.9587 11.6658 12.5943 14.716C13.959 21.2653 27.2735 23.1322 29.2818 21.6035C29.7535 21.2443 31.2448 19.5609 31.3593 18.6975Z" fill="#320E3A"/>
<path fill-rule="evenodd" clip-rule="evenodd" d="M14.6631 33.6412L15.1215 33.861C15.0556 34.3199 14.474 35.4027 14.6357 35.723C14.9012 35.6925 14.8596 35.6662 14.962 35.3477C15.0228 35.1582 15.0769 35.0007 15.1405 34.8206C15.2731 34.4449 15.3741 33.7424 15.6937 34.0698C15.7698 34.1475 15.7188 34.3223 15.681 34.4388C15.5444 34.8594 15.2556 35.3559 15.3868 35.6535C15.6313 35.5963 15.5476 35.6576 15.658 35.4215C15.7654 35.1913 15.9215 34.5412 16.1108 34.191L16.4397 34.2885C16.416 34.6168 16.2101 35.0691 16.105 35.379C15.8602 36.1009 15.7229 36.1657 16.0308 36.2883C16.345 35.9846 16.5106 34.842 16.7981 34.4118L17.2697 34.5359C17.2408 34.7983 17.0971 35.1243 17.0088 35.376L16.8002 36.0232C16.8097 36.5128 16.6583 35.5906 16.8417 36.1929C16.8459 36.2067 16.8563 36.2315 16.8678 36.2481C17.1083 36.1807 17.0324 36.2285 17.1395 35.936L17.5743 34.664L18.1092 34.7973L17.7121 36.0233C17.7121 36.0242 17.5472 35.8969 17.7746 36.246C18.0334 36.1744 17.938 36.2327 18.0492 35.9383C18.4828 34.7912 18.2407 34.8659 18.7357 34.9682C18.7149 35.3324 18.3027 35.852 18.542 36.1498C18.9372 36.02 18.7894 35.5047 19.1 35.1093L19.4342 35.1722C19.3764 35.6618 18.897 36.4099 19.0153 36.7925C19.3602 36.7458 19.3479 36.445 19.4656 36.1056C19.5632 35.8241 19.646 35.4878 19.7975 35.294L20.2668 35.4174C20.1018 36.1448 19.7166 36.5417 20.0068 36.7856C20.2304 36.6862 20.23 36.5134 20.333 36.208C20.4222 35.9436 20.501 35.767 20.563 35.5093L21.0649 35.6263C20.9876 36.1075 20.5212 36.8616 20.6827 37.2239C21.102 37.1102 21.0472 36.3892 21.4018 35.7473L22.0196 35.8344C22.2349 33.3364 22.483 30.9652 23.1155 28.7064C23.4857 27.3848 24.2152 25.5472 24.974 24.4737C25.1623 24.2072 25.8066 23.5968 25.6569 23.2362L20.6989 22.5321C19.8303 22.459 19.4419 23.2505 19.0301 23.6755L17.6589 25.1976C16.2573 26.957 14.4441 30.4667 14.6631 33.6412Z" fill="#320E3A"/>
<path fill-rule="evenodd" clip-rule="evenodd" d="M10.4828 27.956L10.7986 28.1732C10.7382 28.5985 10.2465 29.3175 10.4682 29.6392C10.7347 29.5965 10.7391 29.3811 10.8445 29.0708C10.8876 28.944 10.9189 28.8394 10.9693 28.7028L11.1471 28.3693C11.8555 28.5675 10.943 29.0313 11.2169 29.5136C11.6788 29.4705 11.4272 28.9944 11.7749 28.6262L12.075 28.7446C12.0104 29.1946 11.8149 29.5154 11.741 29.7885C11.6578 30.0958 11.6462 29.9879 11.7749 30.1713C11.9983 30.1204 11.8894 30.3077 12.1356 29.6087C12.2067 29.4067 12.2835 29.1115 12.4027 28.916L12.8779 29.0724C12.8183 29.3865 12.498 29.8863 12.6818 30.1533C12.9836 30.0931 12.9493 29.8558 13.1855 29.1877L13.6603 29.2785C14.0029 28.0587 15.302 26.1683 15.9323 25.3591C17.2686 23.6435 17.7118 23.4957 18.9432 22.1774C18.5902 21.8297 16.6296 21.2604 15.9327 21.364C14.3836 21.5941 10.5462 25.7806 10.4828 27.956Z" fill="#320E3A"/>
</svg>
