<svg width="51" height="51" viewBox="0 0 51 51" fill="none" xmlns="http://www.w3.org/2000/svg">
<rect width="51" height="51" rx="8" fill="#FFF7E8"/>
<g clip-path="url(#clip0_736_13934)">
<path d="M30 21V18C30 17.7348 29.8946 17.4804 29.7071 17.2929C29.5196 17.1054 29.2652 17 29 17H19C18.4696 17 17.9609 17.2107 17.5858 17.5858C17.2107 17.9609 17 18.4696 17 19M17 19C17 19.5304 17.2107 20.0391 17.5858 20.4142C17.9609 20.7893 18.4696 21 19 21H31C31.2652 21 31.5196 21.1054 31.7071 21.2929C31.8946 21.4804 32 21.7348 32 22V25M17 19V31C17 31.5304 17.2107 32.0391 17.5858 32.4142C17.9609 32.7893 18.4696 33 19 33H31C31.2652 33 31.5196 32.8946 31.7071 32.7071C31.8946 32.5196 32 32.2652 32 32V29" stroke="#C28200" stroke-width="1.25" stroke-linecap="round" stroke-linejoin="round"/>
<path d="M33 25V29H29C28.4696 29 27.9609 28.7893 27.5858 28.4142C27.2107 28.0391 27 27.5304 27 27C27 26.4696 27.2107 25.9609 27.5858 25.5858C27.9609 25.2107 28.4696 25 29 25H33Z" stroke="#C28200" stroke-width="1.25" stroke-linecap="round" stroke-linejoin="round"/>
</g>
<defs>
<clipPath id="clip0_736_13934">
<rect width="24" height="24" fill="white" transform="translate(13 13)"/>
</clipPath>
</defs>
</svg>
