<svg width="32" height="40" viewBox="0 0 32 40" fill="none" xmlns="http://www.w3.org/2000/svg">
<path fill-rule="evenodd" clip-rule="evenodd" d="M28.0883 14.7008C26.8577 14.3636 26.3833 14.1964 24.9322 14.1824C21.2953 14.1468 18.8515 13.8653 15.299 12.871C13.3051 12.313 11.6513 11.7206 10.1035 10.7364C8.62478 9.79622 7.3905 7.6648 9.1725 5.97746C11.343 3.92232 17.9088 3.3581 21.2354 4.64862C23.635 5.57954 23.5408 7.33485 21.9411 9.06876C20.9608 10.1316 19.4861 11.2737 17.9828 11.6112C17.573 11.7032 17.5342 11.6392 17.3509 11.9216C17.4506 12.0146 17.2906 11.9466 17.5861 12.0732C17.6332 12.0932 17.8262 12.1439 17.8714 12.1533C18.1107 12.2026 18.3963 12.2355 18.6048 12.2674C20.9458 12.625 27.525 13.3343 29.1752 12.9048C30.3686 12.5943 31.1424 9.82051 31.2079 8.30997C31.3048 6.07307 30.1401 4.77055 29.1558 3.72613C25.2739 -0.392693 14.0531 -1.13071 8.12767 1.68097C5.53937 2.90917 2.07381 5.3253 2.92611 9.39213C4.75601 18.1245 22.6096 20.6137 25.3026 18.5755C25.9351 18.0965 27.9348 15.8521 28.0883 14.7008Z" fill="white"/>
<path fill-rule="evenodd" clip-rule="evenodd" d="M5.70019 34.6271L6.31486 34.9202C6.22652 35.532 5.44655 36.9757 5.66342 37.4027C6.01947 37.3622 5.96369 37.327 6.10089 36.9025C6.18254 36.6498 6.255 36.4398 6.34028 36.1996C6.51805 35.6987 6.65349 34.762 7.08211 35.1985C7.18408 35.3022 7.11571 35.5352 7.06509 35.6905C6.88193 36.2514 6.49462 36.9134 6.67063 37.3101C6.99836 37.2338 6.88624 37.3157 7.03417 37.0008C7.17823 36.6938 7.38761 35.8271 7.64135 35.3602L8.08246 35.4901C8.05063 35.9279 7.77447 36.5309 7.63364 36.9441C7.30539 37.9067 7.12121 37.9931 7.53405 38.1566C7.95541 37.7517 8.1775 36.2281 8.56294 35.6545L9.19537 35.82C9.15662 36.1699 8.96393 36.6046 8.84551 36.9402L8.56578 37.803C8.5786 38.4559 8.37547 37.2262 8.6215 38.0294C8.62711 38.0478 8.64102 38.0807 8.65651 38.103C8.97897 38.0131 8.87723 38.0768 9.02073 37.6867L9.6038 35.9908L10.321 36.1686L9.78854 37.8031C9.78854 37.8045 9.56748 37.6347 9.87235 38.1002C10.2194 38.0047 10.0914 38.0824 10.2406 37.6899C10.822 36.1604 10.4974 36.2599 11.1612 36.3963C11.1332 36.882 10.5805 37.5749 10.9013 37.9719C11.4314 37.7989 11.2332 37.1117 11.6496 36.5845L12.0977 36.6684C12.0202 37.3211 11.3775 38.3187 11.5361 38.8289C11.9986 38.7665 11.982 38.3655 12.1398 37.9129C12.2707 37.5375 12.3818 37.0892 12.585 36.8308L13.2142 36.9954C12.9929 37.9652 12.4764 38.4944 12.8656 38.8196C13.1654 38.6871 13.1649 38.4567 13.303 38.0494C13.4226 37.697 13.5283 37.4615 13.6114 37.1179L14.2844 37.2739C14.1808 37.9155 13.5554 38.9209 13.7719 39.404C14.3342 39.2524 14.2606 38.2911 14.7362 37.4352L15.5646 37.5514C15.8533 34.2207 16.1859 31.0591 17.0341 28.0473C17.5305 26.2852 18.5087 23.8351 19.5262 22.4037C19.7786 22.0485 20.6426 21.2345 20.4419 20.7538L13.7936 19.8149C12.6288 19.7175 12.1081 20.7728 11.5559 21.3394L9.71728 23.369C7.83779 25.7148 5.40655 30.3943 5.70019 34.6271Z" fill="white"/>
<path fill-rule="evenodd" clip-rule="evenodd" d="M0.0960776 27.0441L0.519596 27.3338C0.438513 27.9009 -0.22076 28.8595 0.0765063 29.2885C0.433861 29.2315 0.439759 28.9444 0.581158 28.5306C0.63892 28.3615 0.680911 28.2221 0.748433 28.04L0.986911 27.5952C1.93676 27.8595 0.713137 28.4779 1.08048 29.121C1.69981 29.0636 1.36243 28.4287 1.82872 27.9377L2.23107 28.0957C2.14449 28.6957 1.88228 29.1235 1.78321 29.4876C1.67166 29.8973 1.65606 29.7534 1.82872 29.9979C2.1282 29.9301 1.98221 30.1798 2.31238 29.2478C2.40771 28.9785 2.5107 28.5849 2.67053 28.3242L3.30768 28.5328C3.22779 28.9516 2.79825 29.6179 3.04474 29.9739C3.44947 29.8936 3.40345 29.5772 3.72018 28.6864L4.35682 28.8075C4.81619 27.1811 6.55825 24.6606 7.40336 23.5816C9.19524 21.2942 9.78948 21.0971 11.4408 19.3394C10.9674 18.8757 8.33845 18.1167 7.40393 18.2548C5.32669 18.5617 0.181132 24.1436 0.0960776 27.0441Z" fill="white"/>
</svg>
