<svg width="40" height="41" viewBox="0 0 40 41" fill="none" xmlns="http://www.w3.org/2000/svg">
<rect x="2" y="2.5" width="36" height="36" rx="18" fill="#120515"/>
<g clip-path="url(#clip0_987_27135)">
<path d="M23.3332 17.8346V15.8346C23.3332 15.6578 23.2629 15.4883 23.1379 15.3632C23.0129 15.2382 22.8433 15.168 22.6665 15.168H15.9998C15.6462 15.168 15.3071 15.3084 15.057 15.5585C14.807 15.8085 14.6665 16.1477 14.6665 16.5013C14.6665 16.8549 14.807 17.1941 15.057 17.4441C15.3071 17.6942 15.6462 17.8346 15.9998 17.8346H23.9998C24.1766 17.8346 24.3462 17.9049 24.4712 18.0299C24.5963 18.1549 24.6665 18.3245 24.6665 18.5013V20.5013M24.6665 23.168V25.168C24.6665 25.3448 24.5963 25.5143 24.4712 25.6394C24.3462 25.7644 24.1766 25.8346 23.9998 25.8346H15.9998C15.6462 25.8346 15.3071 25.6942 15.057 25.4441C14.807 25.1941 14.6665 24.8549 14.6665 24.5013V16.5013" stroke="white" stroke-linecap="round" stroke-linejoin="round"/>
<path d="M25.3335 20.5V23.1667H22.6668C22.3132 23.1667 21.9741 23.0262 21.724 22.7761C21.474 22.5261 21.3335 22.187 21.3335 21.8333C21.3335 21.4797 21.474 21.1406 21.724 20.8905C21.9741 20.6405 22.3132 20.5 22.6668 20.5H25.3335Z" stroke="white" stroke-linecap="round" stroke-linejoin="round"/>
</g>
<rect x="2" y="2.5" width="36" height="36" rx="18" stroke="#E3E3E3" stroke-width="4"/>
<defs>
<clipPath id="clip0_987_27135">
<rect width="16" height="16" fill="white" transform="translate(12 12.5)"/>
</clipPath>
</defs>
</svg>
