<svg width="129" height="139" viewBox="0 0 129 139" fill="none" xmlns="http://www.w3.org/2000/svg">
<g opacity="0.1">
<path fill-rule="evenodd" clip-rule="evenodd" d="M116.084 60.8112C110.998 59.416 109.037 58.7245 103.04 58.6665C88.0096 58.5195 77.9099 57.3549 63.228 53.242C54.9877 50.9339 48.1529 48.4832 41.756 44.4118C35.6446 40.5228 30.5436 31.706 37.9083 24.7262C46.8786 16.225 74.0139 13.891 87.7622 19.2294C97.6795 23.0802 97.29 30.3412 90.6787 37.5136C86.6272 41.9101 80.5325 46.6345 74.3199 48.0306C72.6261 48.4111 72.4657 48.1464 71.7083 49.3146C72.12 49.6993 71.459 49.4179 72.6803 49.9416C72.8749 50.0247 73.6725 50.2343 73.8591 50.2729C74.8485 50.477 76.0287 50.613 76.8903 50.745C86.5651 52.2242 113.756 55.1582 120.576 53.3819C125.508 52.0975 128.706 40.6233 128.977 34.3748C129.377 25.1217 124.564 19.7337 120.496 15.4134C104.453 -1.62441 58.0791 -4.67726 33.5902 6.95347C22.8932 12.034 8.5706 22.0285 12.093 38.8513C19.6557 74.9734 93.4416 85.2704 104.571 76.8388C107.185 74.8577 115.449 65.5733 116.084 60.8112Z" fill="white"/>
<path fill-rule="evenodd" clip-rule="evenodd" d="M23.5582 143.231L26.0986 144.444C25.7335 146.975 22.51 152.947 23.4063 154.713C24.8778 154.545 24.6472 154.4 25.2143 152.644C25.5517 151.598 25.8512 150.73 26.2036 149.736C26.9383 147.664 27.4981 143.79 29.2695 145.595C29.6909 146.024 29.4083 146.988 29.1991 147.63C28.4422 149.951 26.8415 152.689 27.5689 154.33C28.9234 154.015 28.46 154.353 29.0713 153.051C29.6667 151.781 30.532 148.195 31.5807 146.264L33.4037 146.801C33.2722 148.612 32.1309 151.107 31.5488 152.816C30.1923 156.798 29.4311 157.155 31.1373 157.831C32.8787 156.157 33.7965 149.854 35.3895 147.482L38.0032 148.166C37.8431 149.613 37.0467 151.412 36.5573 152.8L35.4012 156.369C35.4542 159.07 34.6147 153.983 35.6315 157.305C35.6547 157.381 35.7122 157.518 35.7762 157.61C37.1088 157.238 36.6884 157.502 37.2814 155.888L39.6912 148.872L42.6552 149.608L40.4547 156.369C40.4547 156.375 39.5411 155.673 40.8011 157.598C42.2353 157.203 41.7065 157.525 42.323 155.901C44.7259 149.574 43.3843 149.986 46.1275 150.55C46.0119 152.559 43.7279 155.425 45.0537 157.067C47.2442 156.352 46.4251 153.509 48.1461 151.328L49.9982 151.676C49.6779 154.376 47.0214 158.502 47.6771 160.612C49.5883 160.354 49.5198 158.696 50.1722 156.823C50.7132 155.271 51.1721 153.416 52.0118 152.347L54.6124 153.028C53.6979 157.04 51.563 159.229 53.1714 160.574C54.4105 160.026 54.4087 159.073 54.9794 157.388C55.4735 155.93 55.9104 154.956 56.2537 153.535L59.0351 154.18C58.6069 156.834 56.0223 160.993 56.9171 162.991C59.241 162.364 58.9371 158.388 60.9025 154.847L64.3259 155.328C65.5193 141.551 66.8937 128.472 70.3993 116.014C72.4507 108.724 76.4935 98.5896 80.6985 92.6683C81.7418 91.1989 85.3126 87.832 84.4831 85.8434L57.0067 81.9597C52.1931 81.5568 50.0409 85.922 47.7587 88.2659L40.1602 96.6614C32.3926 106.365 22.3447 125.722 23.5582 143.231Z" fill="white"/>
<path fill-rule="evenodd" clip-rule="evenodd" d="M0.397072 111.875L2.1474 113.073C1.8123 115.419 -0.912362 119.385 0.316187 121.159C1.79307 120.924 1.81745 119.736 2.40182 118.024C2.64055 117.325 2.81409 116.748 3.09314 115.995L4.07873 114.155C8.00427 115.248 2.94727 117.806 4.46543 120.466C7.025 120.229 5.63067 117.603 7.55779 115.572L9.22064 116.225C8.86279 118.707 7.77915 120.477 7.36971 121.983C6.90868 123.678 6.84421 123.082 7.55779 124.094C8.79549 123.813 8.19212 124.846 9.55668 120.991C9.95064 119.877 10.3763 118.249 11.0369 117.171L13.6701 118.033C13.3399 119.766 11.5647 122.522 12.5834 123.995C14.2561 123.662 14.0659 122.354 15.3749 118.669L18.006 119.17C19.9045 112.442 27.1041 102.016 30.5968 97.5524C38.0023 88.0905 40.4582 87.2748 47.2827 80.0043C45.3262 78.0862 34.4614 74.9464 30.5991 75.5176C22.0143 76.787 0.748588 99.877 0.397072 111.875Z" fill="white"/>
</g>
</svg>
